<svg xmlns="http://www.w3.org/2000/svg" width="18.566" height="16.5" viewBox="0 0 18.566 16.5">
  <path id="Icon_awesome-edit" data-name="Icon awesome-edit" d="M12.977,2.686l2.907,2.907a.315.315,0,0,1,0,.445l-7.04,7.04-2.991.332a.627.627,0,0,1-.693-.693l.332-2.991,7.04-7.04A.315.315,0,0,1,12.977,2.686ZM18.2,1.947,16.626.374a1.261,1.261,0,0,0-1.779,0L13.705,1.516a.315.315,0,0,0,0,.445l2.907,2.907a.315.315,0,0,0,.445,0L18.2,3.727a1.261,1.261,0,0,0,0-1.779Zm-5.821,9.215v3.281H2.063V4.13H9.47a.4.4,0,0,0,.274-.113l1.289-1.289a.387.387,0,0,0-.274-.661H1.547A1.548,1.548,0,0,0,0,3.614V14.96a1.548,1.548,0,0,0,1.547,1.547H12.893A1.548,1.548,0,0,0,14.44,14.96V9.874A.387.387,0,0,0,13.78,9.6L12.49,10.889A.4.4,0,0,0,12.377,11.163Z" transform="translate(0 -0.007)" fill="#a7e825"/>
</svg>
