<svg xmlns="http://www.w3.org/2000/svg" width="24.747" height="15.697" viewBox="0 0 24.747 15.697">
  <g id="eye" transform="translate(-1.123 -6.75)">
    <path id="Path_1" data-name="Path 1" d="M20.308,16.626a3.274,3.274,0,0,1-3.4,3.126,3.274,3.274,0,0,1-3.4-3.126A3.274,3.274,0,0,1,16.9,13.5,3.274,3.274,0,0,1,20.308,16.626Z" transform="translate(-3.407 -2.027)"/>
    <path id="Path_2" data-name="Path 2" d="M25.6,13.745a17.064,17.064,0,0,0-5.118-4.932A13.423,13.423,0,0,0,13.48,6.75,12.82,12.82,0,0,0,7.073,8.521a18.408,18.408,0,0,0-5.655,5.2,1.5,1.5,0,0,0-.033,1.743A16.807,16.807,0,0,0,6.452,20.4a13.241,13.241,0,0,0,7.028,2.042A13.489,13.489,0,0,0,20.5,20.4a16.816,16.816,0,0,0,5.108-4.95,1.515,1.515,0,0,0-.005-1.705ZM13.5,19.308A4.834,4.834,0,0,1,8.548,14.6,4.834,4.834,0,0,1,13.5,9.889,4.834,4.834,0,0,1,18.447,14.6,4.839,4.839,0,0,1,13.5,19.308Z" transform="translate(0 0)" />
  </g>
</svg>
